<?xml version="1.0"?>
<svg width="218" height="217" xmlns="http://www.w3.org/2000/svg" xmlns:svg="http://www.w3.org/2000/svg" version="1.0">

 <g class="layer">
  <title>Layer 1</title>
  <g id="svg_7">
   <path d="m94.5,18.55c-1.44,0.43 -1.88,7.65 -1.88,28.58c0,28.87 -0.14,29.59 -5.92,29.59c-0.87,0 -1.3,-10.83 -1.01,-28.15l0.43,-28.29l-3.61,0.87c-2.02,0.43 -8.52,3.18 -14.44,6.21l-10.83,5.34l-0.43,29.88l-0.29,30.03l17.32,0l-1.01,3.9c-1.44,5.34 -1.44,17.32 0.14,23.24l1.15,4.91l-8.81,-0.58l-8.81,-0.43l0,59.76l11.98,5.77c18.77,9.09 17.18,11.26 16.89,-21.94c0,-15.59 0.29,-28.44 0.72,-28.44c0.58,0 2.17,0.72 3.75,1.44c2.6,1.44 2.74,3.32 2.74,29.45l0,27.86l8.08,1.01c4.48,0.43 11.26,0.58 15.16,0l7.07,-1.01l0.29,-27.43c0.43,-26.56 0.58,-27.43 3.75,-29.59l3.18,-2.02l0,28.29c0,33.35 -1.15,31.9 18.33,22.52l11.98,-5.92l0,-59.04l-17.61,0l1.3,-4.76c1.44,-5.77 1.44,-17.76 0,-23.1l-1.01,-3.9l17.32,0l-0.29,-30.03l-0.43,-29.88l-10.83,-5.34c-5.92,-3.03 -12.56,-5.77 -14.72,-6.35l-4.04,-0.87l0,28.29c0,15.59 -0.43,28.29 -0.87,28.29s-2.02,-0.72 -3.61,-1.44c-2.6,-1.44 -2.74,-3.32 -2.74,-29.59l0,-28.15l-13.28,0.14c-7.36,0 -14.29,0.43 -15.16,0.87zm25.41,66.55c12.85,6.5 17.9,21.36 11.69,34.21c-9.38,19.34 -36.67,19.49 -46.05,0.43c-6.5,-13.43 -2.45,-26.42 10.68,-34.5c5.63,-3.46 17.18,-3.61 23.67,-0.14z" id="svg_2"/>
   <path d="m103.3,93.91c-9.67,4.04 -12.27,17.47 -5.05,24.83c9.53,9.38 24.68,2.89 24.68,-10.54c0,-5.05 -0.87,-7.22 -4.04,-10.25c-4.48,-4.33 -10.97,-5.92 -15.59,-4.04zm64.38,-28.44l0,27.14l30.31,0l-0.87,-4.04c-3.75,-15.88 -11.12,-29.74 -22.38,-42.3l-6.93,-7.8l-0.14,26.99zm-126.74,-18.19c-10.25,11.98 -17.47,26.27 -21.08,41.29l-0.87,4.04l30.31,0l0,-25.98c0,-14.87 -0.58,-25.98 -1.3,-25.98s-3.9,3.03 -7.07,6.64zm-21.08,80.98c3.75,15.45 11.26,29.74 21.65,40.71l7.65,8.08l0.14,-26.42l0,-26.27l-30.31,0l0.87,3.9zm147.82,22.38l0,26.27l5.2,-5.05c10.1,-9.38 20.64,-28.44 24.25,-43.6l0.87,-3.9l-30.31,0l0,26.27z" id="svg_3"/>
   <path d="m5.98,108.53c0,-56.64 45.88,-102.52 102.52,-102.52c56.64,0 102.52,45.88 102.52,102.52c0,56.64 -45.88,102.52 -102.52,102.52c-56.64,0 -102.52,-45.88 -102.52,-102.52z" fill="#000000" fill-opacity="0.01" id="svg_5" stroke="#000000" stroke-dasharray="null" stroke-linecap="null" stroke-linejoin="null" stroke-width="9"/>
  </g>
 </g>
</svg>